<svg width="92" height="58" viewBox="0 0 92 58" fill="none" xmlns="http://www.w3.org/2000/svg">
<path d="M6.67 21.29C6.09 21.29 5.539 21.2223 5.017 21.087C4.495 20.971 4.01167 20.7583 3.567 20.449C3.14167 20.1397 2.76467 19.7143 2.436 19.173C2.10733 18.6123 1.856 17.897 1.682 17.027C1.508 16.157 1.421 15.1033 1.421 13.866C1.421 12.1453 1.624 10.7243 2.03 9.603C2.436 8.46233 3.08367 7.61167 3.973 7.051C4.86233 6.49033 6.04167 6.21 7.511 6.21C8.07167 6.21 8.7 6.25833 9.396 6.355C10.092 6.43233 10.6333 6.50967 11.02 6.587V0.207H13.282V21H11.049V20.043C10.7397 20.217 10.3337 20.4007 9.831 20.594C9.34767 20.7873 8.82567 20.9517 8.265 21.087C7.72367 21.2223 7.192 21.29 6.67 21.29ZM6.96 19.26C7.46267 19.26 7.96533 19.202 8.468 19.086C8.99 18.97 9.47333 18.8347 9.918 18.68C10.3627 18.506 10.73 18.3513 11.02 18.216V8.501C10.788 8.46233 10.469 8.42367 10.063 8.385C9.657 8.327 9.23167 8.27867 8.787 8.24C8.36167 8.20133 7.975 8.182 7.627 8.182C6.641 8.182 5.86767 8.39467 5.307 8.82C4.74633 9.24533 4.34033 9.88333 4.089 10.734C3.857 11.5653 3.741 12.6093 3.741 13.866C3.741 15.026 3.828 15.9637 4.002 16.679C4.176 17.375 4.408 17.9163 4.698 18.303C5.00733 18.6703 5.35533 18.9217 5.742 19.057C6.12867 19.1923 6.53467 19.26 6.96 19.26ZM20.6269 21.29C19.2929 21.29 18.2779 20.913 17.5819 20.159C16.8859 19.405 16.5379 18.303 16.5379 16.853C16.5379 15.9057 16.7023 15.1323 17.0309 14.533C17.3596 13.9337 17.8526 13.4793 18.5099 13.17C19.1866 12.8413 20.0179 12.6383 21.0039 12.561L25.4699 12.126V10.879C25.4699 9.893 25.2476 9.197 24.8029 8.791C24.3776 8.385 23.7396 8.182 22.8889 8.182C22.4056 8.182 21.8256 8.20133 21.1489 8.24C20.4916 8.27867 19.8343 8.327 19.1769 8.385C18.5196 8.443 17.9396 8.501 17.4369 8.559L17.3209 6.848C17.7849 6.75133 18.3456 6.65467 19.0029 6.558C19.6603 6.46133 20.3466 6.384 21.0619 6.326C21.7773 6.24867 22.4346 6.21 23.0339 6.21C24.1359 6.21 25.0349 6.384 25.7309 6.732C26.4269 7.06067 26.9296 7.573 27.2389 8.269C27.5676 8.94567 27.7319 9.81567 27.7319 10.879V18.216C27.7706 18.6413 27.9349 18.9507 28.2249 19.144C28.5343 19.3373 28.9209 19.463 29.3849 19.521L29.2979 21.29C28.8726 21.29 28.4859 21.261 28.1379 21.203C27.7899 21.1643 27.4613 21.0967 27.1519 21C26.9006 20.9033 26.6589 20.7873 26.4269 20.652C26.2143 20.5167 26.0016 20.3523 25.7889 20.159C25.4216 20.3137 24.9479 20.478 24.3679 20.652C23.8073 20.826 23.1983 20.971 22.5409 21.087C21.9029 21.2223 21.2649 21.29 20.6269 21.29ZM21.0039 19.405C21.5259 19.405 22.0673 19.3567 22.6279 19.26C23.1886 19.1633 23.7203 19.0473 24.2229 18.912C24.7256 18.7767 25.1413 18.651 25.4699 18.535V13.808L21.2649 14.214C20.3949 14.2913 19.7666 14.5427 19.3799 14.968C19.0126 15.3933 18.8289 16.0023 18.8289 16.795C18.8289 17.607 19.0126 18.245 19.3799 18.709C19.7473 19.173 20.2886 19.405 21.0039 19.405ZM32.0226 21V6.5H34.2556V7.515C34.5842 7.32167 34.9902 7.12833 35.4736 6.935C35.9762 6.74167 36.5079 6.57733 37.0686 6.442C37.6292 6.28733 38.1706 6.21 38.6926 6.21C40.0266 6.21 41.0416 6.45167 41.7376 6.935C42.4529 7.399 42.9459 8.153 43.2166 9.197C43.4872 10.241 43.6226 11.6137 43.6226 13.315V21H41.3606V13.402C41.3606 12.1453 41.2832 11.14 41.1286 10.386C40.9932 9.632 40.7032 9.09067 40.2586 8.762C39.8332 8.414 39.1759 8.24 38.2866 8.24C37.8032 8.24 37.3006 8.298 36.7786 8.414C36.2759 8.51067 35.8022 8.646 35.3576 8.82C34.9129 8.97467 34.5456 9.12933 34.2556 9.284V21H32.0226ZM47.6271 21V6.5H49.8601V21H47.6271ZM47.6271 3.31V0.699999H49.8601V3.31H47.6271ZM32.1003 39.29C31.6556 39.29 31.1143 39.261 30.4763 39.203C29.8576 39.145 29.2389 39.0773 28.6203 39C28.0016 38.9033 27.4506 38.8163 26.9673 38.739L27.0833 36.796C27.5666 36.854 28.1079 36.9217 28.7073 36.999C29.3259 37.0763 29.9253 37.144 30.5053 37.202C31.0853 37.2407 31.5493 37.26 31.8973 37.26C32.6899 37.26 33.3473 37.1923 33.8693 37.057C34.3913 36.9023 34.7876 36.651 35.0583 36.303C35.3289 35.955 35.4643 35.462 35.4643 34.824C35.4643 34.3407 35.3579 33.9637 35.1453 33.693C34.9519 33.4223 34.5749 33.2 34.0143 33.026C33.4729 32.852 32.6803 32.6877 31.6363 32.533C30.5536 32.359 29.6449 32.1463 28.9103 31.895C28.1949 31.6243 27.6633 31.228 27.3153 30.706C26.9673 30.184 26.7933 29.4397 26.7933 28.473C26.7933 27.3903 27.0446 26.5397 27.5473 25.921C28.0499 25.3023 28.6976 24.8673 29.4903 24.616C30.3023 24.3453 31.1433 24.21 32.0133 24.21C32.5546 24.21 33.1443 24.239 33.7823 24.297C34.4396 24.355 35.0776 24.4323 35.6963 24.529C36.3149 24.6063 36.8466 24.6837 37.2913 24.761L37.2333 26.704C36.7693 26.6267 36.2279 26.559 35.6093 26.501C34.9906 26.4237 34.3719 26.3657 33.7533 26.327C33.1346 26.269 32.5933 26.24 32.1293 26.24C31.5493 26.24 31.0273 26.3077 30.5633 26.443C30.0993 26.559 29.7319 26.7717 29.4613 27.081C29.1906 27.3903 29.0553 27.8253 29.0553 28.386C29.0553 28.8113 29.1519 29.1593 29.3453 29.43C29.5386 29.6813 29.9059 29.894 30.4473 30.068C30.9886 30.242 31.7716 30.416 32.7963 30.59C33.9949 30.7833 34.9519 31.025 35.6673 31.315C36.4019 31.605 36.9336 32.011 37.2623 32.533C37.5909 33.055 37.7553 33.7897 37.7553 34.737C37.7553 36.4383 37.2526 37.6273 36.2473 38.304C35.2419 38.9613 33.8596 39.29 32.1003 39.29ZM44.2461 39.29C42.9121 39.29 41.8971 38.913 41.2011 38.159C40.5051 37.405 40.1571 36.303 40.1571 34.853C40.1571 33.9057 40.3214 33.1323 40.6501 32.533C40.9787 31.9337 41.4717 31.4793 42.1291 31.17C42.8057 30.8413 43.6371 30.6383 44.6231 30.561L49.0891 30.126V28.879C49.0891 27.893 48.8667 27.197 48.4221 26.791C47.9967 26.385 47.3587 26.182 46.5081 26.182C46.0247 26.182 45.4447 26.2013 44.7681 26.24C44.1107 26.2787 43.4534 26.327 42.7961 26.385C42.1387 26.443 41.5587 26.501 41.0561 26.559L40.9401 24.848C41.4041 24.7513 41.9647 24.6547 42.6221 24.558C43.2794 24.4613 43.9657 24.384 44.6811 24.326C45.3964 24.2487 46.0537 24.21 46.6531 24.21C47.7551 24.21 48.6541 24.384 49.3501 24.732C50.0461 25.0607 50.5487 25.573 50.8581 26.269C51.1867 26.9457 51.3511 27.8157 51.3511 28.879V36.216C51.3897 36.6413 51.5541 36.9507 51.8441 37.144C52.1534 37.3373 52.5401 37.463 53.0041 37.521L52.9171 39.29C52.4917 39.29 52.1051 39.261 51.7571 39.203C51.4091 39.1643 51.0804 39.0967 50.7711 39C50.5197 38.9033 50.2781 38.7873 50.0461 38.652C49.8334 38.5167 49.6207 38.3523 49.4081 38.159C49.0407 38.3137 48.5671 38.478 47.9871 38.652C47.4264 38.826 46.8174 38.971 46.1601 39.087C45.5221 39.2223 44.8841 39.29 44.2461 39.29ZM44.6231 37.405C45.1451 37.405 45.6864 37.3567 46.2471 37.26C46.8077 37.1633 47.3394 37.0473 47.8421 36.912C48.3447 36.7767 48.7604 36.651 49.0891 36.535V31.808L44.8841 32.214C44.0141 32.2913 43.3857 32.5427 42.9991 32.968C42.6317 33.3933 42.4481 34.0023 42.4481 34.795C42.4481 35.607 42.6317 36.245 42.9991 36.709C43.3664 37.173 43.9077 37.405 44.6231 37.405ZM55.8157 39V18.207H58.0487V39H55.8157ZM65.5713 39.29C64.2373 39.29 63.2223 38.913 62.5263 38.159C61.8303 37.405 61.4823 36.303 61.4823 34.853C61.4823 33.9057 61.6466 33.1323 61.9753 32.533C62.3039 31.9337 62.7969 31.4793 63.4543 31.17C64.1309 30.8413 64.9623 30.6383 65.9483 30.561L70.4143 30.126V28.879C70.4143 27.893 70.1919 27.197 69.7473 26.791C69.3219 26.385 68.6839 26.182 67.8333 26.182C67.3499 26.182 66.7699 26.2013 66.0933 26.24C65.4359 26.2787 64.7786 26.327 64.1213 26.385C63.4639 26.443 62.8839 26.501 62.3813 26.559L62.2653 24.848C62.7293 24.7513 63.2899 24.6547 63.9473 24.558C64.6046 24.4613 65.2909 24.384 66.0063 24.326C66.7216 24.2487 67.3789 24.21 67.9783 24.21C69.0803 24.21 69.9793 24.384 70.6753 24.732C71.3713 25.0607 71.8739 25.573 72.1833 26.269C72.5119 26.9457 72.6763 27.8157 72.6763 28.879V36.216C72.7149 36.6413 72.8793 36.9507 73.1693 37.144C73.4786 37.3373 73.8653 37.463 74.3293 37.521L74.2423 39.29C73.8169 39.29 73.4303 39.261 73.0823 39.203C72.7343 39.1643 72.4056 39.0967 72.0963 39C71.8449 38.9033 71.6033 38.7873 71.3713 38.652C71.1586 38.5167 70.9459 38.3523 70.7333 38.159C70.3659 38.3137 69.8923 38.478 69.3123 38.652C68.7516 38.826 68.1426 38.971 67.4853 39.087C66.8473 39.2223 66.2093 39.29 65.5713 39.29ZM65.9483 37.405C66.4703 37.405 67.0116 37.3567 67.5723 37.26C68.1329 37.1633 68.6646 37.0473 69.1673 36.912C69.6699 36.7767 70.0856 36.651 70.4143 36.535V31.808L66.2093 32.214C65.3393 32.2913 64.7109 32.5427 64.3243 32.968C63.9569 33.3933 63.7733 34.0023 63.7733 34.795C63.7733 35.607 63.9569 36.245 64.3243 36.709C64.6916 37.173 65.2329 37.405 65.9483 37.405ZM81.7229 39.319C80.7176 39.319 79.9152 39.1643 79.3159 38.855C78.7359 38.5457 78.3202 38.014 78.0689 37.26C77.8176 36.4867 77.6919 35.404 77.6919 34.012V26.443H75.6329V24.5H77.6919V20.063H79.9249V24.5H84.4779V26.443H79.9249V33.345C79.9249 34.3697 79.9636 35.172 80.0409 35.752C80.1376 36.3127 80.3309 36.709 80.6209 36.941C80.9109 37.173 81.3652 37.289 81.9839 37.289C82.1772 37.289 82.4286 37.2793 82.7379 37.26C83.0472 37.2407 83.3566 37.2213 83.6659 37.202C83.9946 37.1633 84.2846 37.1343 84.5359 37.115L84.6809 39C84.2556 39.058 83.7529 39.1257 83.1729 39.203C82.5929 39.2803 82.1096 39.319 81.7229 39.319ZM86.9889 39V35.607H89.4539V39H86.9889Z" fill="#858585"/>
<path d="M3.66504 46.3184V57.6562H0.922852V44.4902H3.48047L3.66504 46.3184ZM9.59766 49.1396V49.3242C9.59766 50.0156 9.51855 50.6572 9.36035 51.249C9.20215 51.835 8.96484 52.3477 8.64844 52.7871C8.33789 53.2266 7.9541 53.5693 7.49707 53.8154C7.04004 54.0557 6.50977 54.1758 5.90625 54.1758C5.33203 54.1758 4.83398 54.0557 4.41211 53.8154C3.99609 53.5693 3.64453 53.2295 3.35742 52.7959C3.07617 52.3564 2.84766 51.8555 2.67188 51.293C2.50195 50.7246 2.37012 50.1182 2.27637 49.4736V49.1133C2.37012 48.4277 2.50488 47.792 2.68066 47.2061C2.85645 46.6201 3.08496 46.1133 3.36621 45.6855C3.64746 45.252 3.99609 44.915 4.41211 44.6748C4.82812 44.4346 5.32324 44.3145 5.89746 44.3145C6.49512 44.3145 7.02539 44.4287 7.48828 44.6572C7.95117 44.8857 8.33789 45.2139 8.64844 45.6416C8.96484 46.0635 9.20215 46.5703 9.36035 47.1621C9.51855 47.7539 9.59766 48.4131 9.59766 49.1396ZM6.84668 49.3242V49.1396C6.84668 48.7529 6.81738 48.3984 6.75879 48.0762C6.7002 47.748 6.60645 47.4639 6.47754 47.2236C6.34863 46.9775 6.17871 46.7871 5.96777 46.6523C5.75684 46.5176 5.49902 46.4502 5.19434 46.4502C4.86621 46.4502 4.58789 46.5029 4.35938 46.6084C4.13086 46.7139 3.94629 46.8691 3.80566 47.0742C3.66504 47.2734 3.5625 47.5195 3.49805 47.8125C3.43945 48.1055 3.40723 48.4395 3.40137 48.8145V49.7812C3.40723 50.2207 3.46875 50.6133 3.58594 50.959C3.70898 51.2988 3.89941 51.5654 4.15723 51.7588C4.4209 51.9463 4.77246 52.04 5.21191 52.04C5.52246 52.04 5.78027 51.9727 5.98535 51.8379C6.19629 51.6973 6.36328 51.501 6.48633 51.249C6.61523 50.9971 6.70605 50.707 6.75879 50.3789C6.81738 50.0508 6.84668 49.6992 6.84668 49.3242ZM13.8076 46.7051V54H11.0654V44.4902H13.6406L13.8076 46.7051ZM16.6465 44.4199L16.6025 46.9775C16.4854 46.96 16.333 46.9453 16.1455 46.9336C15.958 46.916 15.7969 46.9072 15.6621 46.9072C15.3105 46.9072 15.0059 46.9512 14.748 47.0391C14.4961 47.1211 14.2852 47.2441 14.1152 47.4082C13.9512 47.5723 13.8281 47.7773 13.7461 48.0234C13.6641 48.2637 13.623 48.542 13.623 48.8584L13.1045 48.6035C13.1045 47.9766 13.166 47.4023 13.2891 46.8809C13.4121 46.3594 13.5908 45.9082 13.8252 45.5273C14.0596 45.1406 14.3467 44.8418 14.6865 44.6309C15.0264 44.4199 15.4131 44.3145 15.8467 44.3145C15.9873 44.3145 16.1309 44.3232 16.2773 44.3408C16.4238 44.3584 16.5469 44.3848 16.6465 44.4199ZM17.0771 49.3418V49.1572C17.0771 48.46 17.1768 47.8184 17.376 47.2324C17.5752 46.6406 17.8682 46.1279 18.2549 45.6943C18.6416 45.2607 19.1162 44.9238 19.6787 44.6836C20.2412 44.4375 20.8857 44.3145 21.6123 44.3145C22.3506 44.3145 23.001 44.4375 23.5635 44.6836C24.1318 44.9238 24.6094 45.2607 24.9961 45.6943C25.3828 46.1279 25.6758 46.6406 25.875 47.2324C26.0742 47.8184 26.1738 48.46 26.1738 49.1572V49.3418C26.1738 50.0332 26.0742 50.6748 25.875 51.2666C25.6758 51.8525 25.3828 52.3652 24.9961 52.8047C24.6094 53.2383 24.1348 53.5752 23.5723 53.8154C23.0098 54.0557 22.3623 54.1758 21.6299 54.1758C20.9033 54.1758 20.2559 54.0557 19.6875 53.8154C19.1191 53.5752 18.6416 53.2383 18.2549 52.8047C17.8682 52.3652 17.5752 51.8525 17.376 51.2666C17.1768 50.6748 17.0771 50.0332 17.0771 49.3418ZM19.8281 49.1572V49.3418C19.8281 49.7168 19.8574 50.0684 19.916 50.3965C19.9805 50.7246 20.083 51.0117 20.2236 51.2578C20.3643 51.5039 20.5488 51.6973 20.7773 51.8379C21.0117 51.9727 21.2959 52.04 21.6299 52.04C21.9639 52.04 22.2451 51.9727 22.4736 51.8379C22.7021 51.6973 22.8867 51.5039 23.0273 51.2578C23.168 51.0117 23.2676 50.7246 23.3262 50.3965C23.3906 50.0684 23.4229 49.7168 23.4229 49.3418V49.1572C23.4229 48.7881 23.3906 48.4424 23.3262 48.1201C23.2676 47.792 23.168 47.502 23.0273 47.25C22.8867 46.998 22.6992 46.8018 22.4648 46.6611C22.2363 46.5205 21.9521 46.4502 21.6123 46.4502C21.2842 46.4502 21.0059 46.5205 20.7773 46.6611C20.5488 46.8018 20.3643 46.998 20.2236 47.25C20.083 47.502 19.9805 47.792 19.916 48.1201C19.8574 48.4424 19.8281 48.7881 19.8281 49.1572ZM33.1523 51.873V40.5H35.9121V54H33.4336L33.1523 51.873ZM27.2285 49.3594V49.1748C27.2285 48.4541 27.3076 47.7979 27.4658 47.2061C27.6299 46.6084 27.8672 46.0957 28.1777 45.668C28.4941 45.2344 28.8838 44.9004 29.3467 44.666C29.8096 44.4316 30.3398 44.3145 30.9375 44.3145C31.4883 44.3145 31.9688 44.4375 32.3789 44.6836C32.7891 44.9238 33.1377 45.2637 33.4248 45.7031C33.7178 46.1367 33.9551 46.6494 34.1367 47.2412C34.3184 47.8271 34.4561 48.4629 34.5498 49.1484V49.4648C34.4619 50.1211 34.3242 50.7334 34.1367 51.3018C33.9551 51.8701 33.7178 52.3711 33.4248 52.8047C33.1377 53.2324 32.7861 53.5693 32.3701 53.8154C31.96 54.0557 31.4766 54.1758 30.9199 54.1758C30.3223 54.1758 29.792 54.0557 29.3291 53.8154C28.8721 53.5752 28.4883 53.2383 28.1777 52.8047C27.8672 52.3711 27.6299 51.8613 27.4658 51.2754C27.3076 50.6895 27.2285 50.0508 27.2285 49.3594ZM29.9707 49.1748V49.3594C29.9707 49.7344 29.9971 50.083 30.0498 50.4053C30.1084 50.7275 30.2021 51.0117 30.3311 51.2578C30.46 51.5039 30.6299 51.6973 30.8408 51.8379C31.0518 51.9727 31.3096 52.04 31.6143 52.04C32.0244 52.04 32.3613 51.9463 32.625 51.7588C32.8887 51.5654 33.0879 51.2988 33.2227 50.959C33.3574 50.6191 33.4277 50.2236 33.4336 49.7725V48.8496C33.4336 48.4746 33.3955 48.1377 33.3193 47.8389C33.2432 47.54 33.1289 47.2881 32.9766 47.083C32.8301 46.8779 32.6455 46.7227 32.4229 46.6172C32.2002 46.5059 31.9365 46.4502 31.6318 46.4502C31.333 46.4502 31.0781 46.5205 30.8672 46.6611C30.6562 46.7959 30.4834 46.9863 30.3486 47.2324C30.2197 47.4785 30.123 47.7686 30.0586 48.1025C30 48.4307 29.9707 48.7881 29.9707 49.1748ZM43.3213 51.7061V44.4902H46.0811V54H43.4971L43.3213 51.7061ZM43.6113 49.7637L44.3672 49.7461C44.3672 50.3848 44.291 50.9736 44.1387 51.5127C43.9922 52.0518 43.7695 52.5205 43.4707 52.9189C43.1777 53.3174 42.8115 53.6279 42.3721 53.8506C41.9385 54.0674 41.4316 54.1758 40.8516 54.1758C40.3828 54.1758 39.9521 54.1113 39.5596 53.9824C39.1729 53.8477 38.8389 53.6396 38.5576 53.3584C38.2764 53.0713 38.0596 52.7051 37.9072 52.2598C37.7549 51.8086 37.6787 51.2695 37.6787 50.6426V44.4902H40.4209V50.6602C40.4209 50.9062 40.4502 51.1172 40.5088 51.293C40.5732 51.4629 40.6582 51.6035 40.7637 51.7148C40.875 51.8262 41.0098 51.9082 41.168 51.9609C41.332 52.0137 41.5107 52.04 41.7041 52.04C42.1904 52.04 42.5713 51.9404 42.8467 51.7412C43.1279 51.5361 43.3242 51.2637 43.4355 50.9238C43.5527 50.5781 43.6113 50.1914 43.6113 49.7637ZM51.8379 52.04C52.1309 52.04 52.3857 51.9844 52.6025 51.873C52.8193 51.7617 52.9863 51.6064 53.1035 51.4072C53.2266 51.2021 53.2881 50.9561 53.2881 50.6689H55.8721C55.8721 51.3604 55.6934 51.9697 55.3359 52.4971C54.9844 53.0244 54.5098 53.4375 53.9121 53.7363C53.3145 54.0293 52.6406 54.1758 51.8906 54.1758C51.1523 54.1758 50.5078 54.0557 49.957 53.8154C49.4062 53.5693 48.9463 53.2266 48.5771 52.7871C48.208 52.3477 47.9297 51.8379 47.7422 51.2578C47.5605 50.6719 47.4697 50.0391 47.4697 49.3594V49.1309C47.4697 48.457 47.5605 47.8271 47.7422 47.2412C47.9297 46.6553 48.208 46.1426 48.5771 45.7031C48.9463 45.2637 49.4033 44.9238 49.9482 44.6836C50.499 44.4375 51.1436 44.3145 51.8818 44.3145C52.6611 44.3145 53.3496 44.4639 53.9473 44.7627C54.5508 45.0615 55.0225 45.4922 55.3623 46.0547C55.7021 46.6113 55.8721 47.2822 55.8721 48.0674H53.2881C53.2881 47.7627 53.2324 47.4902 53.1211 47.25C53.0156 47.0039 52.8516 46.8105 52.6289 46.6699C52.4121 46.5234 52.1426 46.4502 51.8203 46.4502C51.4863 46.4502 51.2109 46.5234 50.9941 46.6699C50.7832 46.8105 50.6221 47.0068 50.5107 47.2588C50.3994 47.5107 50.3232 47.7979 50.2822 48.1201C50.2412 48.4365 50.2207 48.7734 50.2207 49.1309V49.3594C50.2207 49.7227 50.2412 50.0684 50.2822 50.3965C50.3232 50.7188 50.3994 51.0029 50.5107 51.249C50.6279 51.4951 50.792 51.6885 51.0029 51.8291C51.2139 51.9697 51.4922 52.04 51.8379 52.04ZM61.7168 54.1758C60.9609 54.1758 60.2842 54.0557 59.6865 53.8154C59.0889 53.5752 58.582 53.2441 58.166 52.8223C57.7559 52.3945 57.4424 51.9023 57.2256 51.3457C57.0088 50.7891 56.9004 50.1943 56.9004 49.5615V49.2275C56.9004 48.5186 57 47.8652 57.1992 47.2676C57.3984 46.6699 57.6885 46.1514 58.0693 45.7119C58.4561 45.2666 58.9307 44.9238 59.4932 44.6836C60.0557 44.4375 60.6973 44.3145 61.418 44.3145C62.0918 44.3145 62.6924 44.4258 63.2197 44.6484C63.7471 44.8652 64.1924 45.1787 64.5557 45.5889C64.9189 45.9932 65.1943 46.4824 65.3818 47.0566C65.5752 47.625 65.6719 48.2637 65.6719 48.9727V50.0977H58.0078V48.3311H62.9824V48.1201C62.9824 47.7861 62.9209 47.4932 62.7979 47.2412C62.6807 46.9893 62.5049 46.7959 62.2705 46.6611C62.042 46.5205 61.752 46.4502 61.4004 46.4502C61.0664 46.4502 60.7881 46.5205 60.5654 46.6611C60.3428 46.8018 60.1641 47.001 60.0293 47.2588C59.9004 47.5107 59.8066 47.8066 59.748 48.1465C59.6895 48.4805 59.6602 48.8408 59.6602 49.2275V49.5615C59.6602 49.9307 59.71 50.2676 59.8096 50.5723C59.9092 50.877 60.0557 51.1377 60.249 51.3545C60.4424 51.5713 60.6768 51.7412 60.9521 51.8643C61.2275 51.9873 61.541 52.0488 61.8926 52.0488C62.3262 52.0488 62.7393 51.9668 63.1318 51.8027C63.5244 51.6328 63.8643 51.3691 64.1514 51.0117L65.4346 52.4795C65.2412 52.7607 64.9688 53.0332 64.6172 53.2969C64.2715 53.5547 63.8555 53.7656 63.3691 53.9297C62.8828 54.0938 62.332 54.1758 61.7168 54.1758ZM69.7588 46.7051V54H67.0166V44.4902H69.5918L69.7588 46.7051ZM72.5977 44.4199L72.5537 46.9775C72.4365 46.96 72.2842 46.9453 72.0967 46.9336C71.9092 46.916 71.748 46.9072 71.6133 46.9072C71.2617 46.9072 70.957 46.9512 70.6992 47.0391C70.4473 47.1211 70.2363 47.2441 70.0664 47.4082C69.9023 47.5723 69.7793 47.7773 69.6973 48.0234C69.6152 48.2637 69.5742 48.542 69.5742 48.8584L69.0557 48.6035C69.0557 47.9766 69.1172 47.4023 69.2402 46.8809C69.3633 46.3594 69.542 45.9082 69.7764 45.5273C70.0107 45.1406 70.2979 44.8418 70.6377 44.6309C70.9775 44.4199 71.3643 44.3145 71.7979 44.3145C71.9385 44.3145 72.082 44.3232 72.2285 44.3408C72.375 44.3584 72.498 44.3848 72.5977 44.4199ZM72.4131 52.6992C72.4131 52.3008 72.5537 51.9668 72.835 51.6973C73.1221 51.4277 73.4941 51.293 73.9512 51.293C74.4141 51.293 74.7832 51.4277 75.0586 51.6973C75.3398 51.9668 75.4805 52.3008 75.4805 52.6992C75.4805 53.0918 75.3398 53.4229 75.0586 53.6924C74.7832 53.9619 74.4141 54.0967 73.9512 54.0967C73.4941 54.0967 73.1221 53.9619 72.835 53.6924C72.5537 53.4229 72.4131 53.0918 72.4131 52.6992Z" fill="#D2D2D2"/>
</svg>
