<svg width="23" height="22" viewBox="0 0 23 22" fill="none" xmlns="http://www.w3.org/2000/svg">
<path d="M20.0328 0.355613L11.0023 9.3861L1.97183 0.355613C1.75463 0.156858 1.46913 0.0495664 1.17479 0.0560881C0.880448 0.0626098 0.599975 0.182443 0.391795 0.390623C0.183615 0.598803 0.0637823 0.879276 0.0572606 1.17361C0.0507388 1.46795 0.158031 1.75346 0.356786 1.97066L9.38269 11.0011L0.354495 20.0293C0.244196 20.1345 0.156025 20.2606 0.0951621 20.4002C0.0342996 20.5399 0.00197454 20.6904 8.76667e-05 20.8427C-0.00179921 20.9951 0.0267901 21.1463 0.0841746 21.2874C0.141559 21.4286 0.226581 21.5568 0.334242 21.6646C0.441903 21.7724 0.570032 21.8576 0.711095 21.9152C0.852158 21.9728 1.00331 22.0016 1.15567 21.9999C1.30802 21.9983 1.4585 21.9662 1.59827 21.9055C1.73804 21.8448 1.86427 21.7568 1.96954 21.6467L11.0023 12.6185L20.0328 21.649C20.25 21.8477 20.5355 21.955 20.8298 21.9485C21.1242 21.942 21.4047 21.8221 21.6128 21.614C21.821 21.4058 21.9409 21.1253 21.9474 20.831C21.9539 20.5366 21.8466 20.2511 21.6479 20.0339L12.6174 11.0034L21.6479 1.97066C21.7582 1.86554 21.8463 1.73944 21.9072 1.59976C21.968 1.46008 22.0004 1.30964 22.0023 1.15729C22.0041 1.00493 21.9756 0.85374 21.9182 0.712596C21.8608 0.571451 21.7758 0.443202 21.6681 0.335388C21.5604 0.227573 21.4323 0.14237 21.2913 0.0847855C21.1502 0.027201 20.999 -0.00160218 20.8467 6.87489e-05C20.6943 0.00173967 20.5438 0.0338512 20.4041 0.0945156C20.2643 0.15518 20.1381 0.243173 20.0328 0.353322V0.355613Z" fill="black"/>
</svg>
