<svg width="30" height="30" viewBox="0 0 30 30" fill="none" xmlns="http://www.w3.org/2000/svg">
<path d="M15 9.36735C13.886 9.36735 12.797 9.6977 11.8707 10.3166C10.9444 10.9355 10.2224 11.8152 9.79611 12.8445C9.36979 13.8737 9.25824 15.0062 9.47558 16.0989C9.69291 17.1915 10.2294 18.1951 11.0171 18.9829C11.8049 19.7706 12.8085 20.3071 13.9011 20.5244C14.9938 20.7418 16.1263 20.6302 17.1555 20.2039C18.1848 19.7776 19.0645 19.0556 19.6834 18.1293C20.3023 17.203 20.6327 16.114 20.6327 15C20.6327 13.5061 20.0392 12.0734 18.9829 11.0171C17.9266 9.96079 16.4939 9.36735 15 9.36735ZM15 19.1633C14.1766 19.1633 13.3717 18.9191 12.687 18.4616C12.0024 18.0042 11.4688 17.3539 11.1536 16.5932C10.8385 15.8325 10.7561 14.9954 10.9167 14.1878C11.0774 13.3802 11.4739 12.6384 12.0561 12.0561C12.6384 11.4739 13.3802 11.0774 14.1878 10.9167C14.9954 10.7561 15.8325 10.8385 16.5932 11.1536C17.3539 11.4688 18.0042 12.0024 18.4616 12.687C18.9191 13.3717 19.1633 14.1766 19.1633 15C19.16 16.1032 18.7204 17.1602 17.9403 17.9403C17.1602 18.7204 16.1032 19.16 15 19.1633ZM20.3878 3H9.61225C7.85857 3 6.17672 3.69665 4.93668 4.93668C3.69665 6.17672 3 7.85857 3 9.61225V20.3878C3 22.1414 3.69665 23.8233 4.93668 25.0633C6.17672 26.3034 7.85857 27 9.61225 27H20.3878C22.1414 27 23.8233 26.3034 25.0633 25.0633C26.3034 23.8233 27 22.1414 27 20.3878V9.61225C27 7.85857 26.3034 6.17672 25.0633 4.93668C23.8233 3.69665 22.1414 3 20.3878 3ZM25.5306 20.3878C25.5306 21.7517 24.9888 23.0598 24.0243 24.0243C23.0598 24.9888 21.7517 25.5306 20.3878 25.5306H9.61225C8.24827 25.5306 6.94017 24.9888 5.9757 24.0243C5.01122 23.0598 4.46939 21.7517 4.46939 20.3878V9.61225C4.46939 8.24827 5.01122 6.94017 5.9757 5.9757C6.94017 5.01122 8.24827 4.46939 9.61225 4.46939H20.3878C21.7517 4.46939 23.0598 5.01122 24.0243 5.9757C24.9888 6.94017 25.5306 8.24827 25.5306 9.61225V20.3878ZM22.5918 8.63265C22.5918 8.87483 22.52 9.11158 22.3855 9.31294C22.2509 9.51431 22.0597 9.67125 21.8359 9.76393C21.6122 9.85661 21.366 9.88086 21.1285 9.83361C20.8909 9.78637 20.6727 9.66975 20.5015 9.4985C20.3303 9.32725 20.2136 9.10907 20.1664 8.87154C20.1191 8.63401 20.1434 8.38781 20.2361 8.16406C20.3287 7.94031 20.4857 7.74908 20.6871 7.61453C20.8884 7.47998 21.1252 7.40816 21.3673 7.40816C21.6921 7.40816 22.0036 7.53717 22.2332 7.76681C22.4628 7.99644 22.5918 8.3079 22.5918 8.63265Z" fill="black"/>
</svg>
