<svg width="33" height="20" viewBox="0 0 33 20" fill="none" xmlns="http://www.w3.org/2000/svg">
<path d="M31.807 11.6615L18.896 19.3861C18.5766 19.5805 18.2109 19.6855 17.837 19.6902C17.4631 19.6949 17.0949 19.5991 16.7707 19.4128C16.419 19.208 16.1277 18.9137 15.9265 18.5599C15.7252 18.206 15.6212 17.8053 15.625 17.3982V11.9944L3.27111 19.3882C2.9517 19.5825 2.58596 19.6875 2.21211 19.6922C1.83825 19.6969 1.47 19.6011 1.14581 19.4148C0.794065 19.21 0.502787 18.9157 0.301562 18.5619C0.100337 18.2081 -0.00366727 17.8073 0.000111698 17.4003V2.29286C-0.00385867 1.8857 0.100059 1.48476 0.301297 1.13079C0.502535 0.776823 0.793916 0.482456 1.14581 0.277621C1.47 0.0913481 1.83825 -0.00444686 2.21211 0.000242886C2.58596 0.00493263 2.9517 0.109936 3.27111 0.304282L15.625 7.70145L15.625 2.29559C15.6205 1.88798 15.7242 1.48646 15.9255 1.13197C16.1268 0.777484 16.4184 0.482686 16.7707 0.277621C17.0949 0.0913481 17.4631 -0.00444686 17.837 0.000242886C18.2109 0.00493263 18.5766 0.109936 18.896 0.304282L31.807 8.0289C32.114 8.22116 32.367 8.48827 32.5424 8.80513C32.7178 9.122 32.8099 9.47824 32.8099 9.84042C32.8099 10.2026 32.7178 10.5588 32.5424 10.8757C32.367 11.1926 32.114 11.4597 31.807 11.6519V11.6615Z" fill="white"/>
</svg>
