<svg width="61" height="61" viewBox="0 0 61 61" fill="none" xmlns="http://www.w3.org/2000/svg">
<path d="M0 30.47C0 22.3889 3.21022 14.6387 8.92446 8.92446C14.6387 3.21022 22.3889 0 30.47 0C38.5511 0 46.3013 3.21022 52.0155 8.92446C57.7298 14.6387 60.94 22.3889 60.94 30.47C60.94 38.5511 57.7298 46.3013 52.0155 52.0155C46.3013 57.7298 38.5511 60.94 30.47 60.94C22.3889 60.94 14.6387 57.7298 8.92446 52.0155C3.21022 46.3013 0 38.5511 0 30.47V30.47ZM26.6612 20.9481C26.6612 20.4431 26.4606 19.9587 26.1035 19.6015C25.7463 19.2444 25.2619 19.0437 24.7569 19.0437C24.2518 19.0437 23.7674 19.2444 23.4103 19.6015C23.0531 19.9587 22.8525 20.4431 22.8525 20.9481V39.9919C22.8525 40.4969 23.0531 40.9813 23.4103 41.3385C23.7674 41.6956 24.2518 41.8962 24.7569 41.8962C25.2619 41.8962 25.7463 41.6956 26.1035 41.3385C26.4606 40.9813 26.6612 40.4969 26.6612 39.9919V20.9481ZM38.0875 20.9481C38.0875 20.4431 37.8869 19.9587 37.5297 19.6015C37.1726 19.2444 36.6882 19.0437 36.1831 19.0437C35.6781 19.0437 35.1937 19.2444 34.8365 19.6015C34.4794 19.9587 34.2787 20.4431 34.2787 20.9481V39.9919C34.2787 40.4969 34.4794 40.9813 34.8365 41.3385C35.1937 41.6956 35.6781 41.8962 36.1831 41.8962C36.6882 41.8962 37.1726 41.6956 37.5297 41.3385C37.8869 40.9813 38.0875 40.4969 38.0875 39.9919V20.9481Z" fill="white"/>
</svg>
