<svg width="33" height="20" viewBox="0 0 33 20" fill="none" xmlns="http://www.w3.org/2000/svg">
<path d="M1.00283 8.03087L13.9139 0.306255C14.2333 0.111908 14.599 0.00690473 14.9729 0.00221498C15.3467 -0.00247476 15.715 0.0933213 16.0391 0.279594C16.3909 0.484425 16.6822 0.778695 16.8834 1.13252C17.0846 1.48635 17.1886 1.88712 17.1848 2.29415V7.69796L29.5387 0.304204C29.8582 0.109857 30.2239 0.00485403 30.5977 0.000164283C30.9716 -0.00452546 31.3399 0.0912706 31.664 0.277544C32.0158 0.482375 32.3071 0.776645 32.5083 1.13047C32.7095 1.48429 32.8135 1.88507 32.8097 2.2921V17.3995C32.8137 17.8067 32.7098 18.2076 32.5086 18.5616C32.3073 18.9156 32.0159 19.2099 31.664 19.4148C31.3399 19.601 30.9716 19.6968 30.5977 19.6921C30.2239 19.6875 29.8582 19.5824 29.5387 19.3881L17.1848 11.9909V17.3968C17.1893 17.8044 17.0856 18.2059 16.8844 18.5604C16.6831 18.9149 16.3914 19.2097 16.0391 19.4148C15.715 19.601 15.3467 19.6968 14.9729 19.6921C14.599 19.6875 14.2333 19.5824 13.9139 19.3881L1.00283 11.6635C0.695894 11.4712 0.442848 11.2041 0.267436 10.8872C0.0920244 10.5704 0 10.2141 0 9.85196C0 9.48978 0.0920244 9.13354 0.267436 8.81667C0.442848 8.49981 0.695894 8.23271 1.00283 8.04044V8.03087Z" fill="white"/>
</svg>
