<svg width="24" height="24" viewBox="0 0 24 24" fill="none" xmlns="http://www.w3.org/2000/svg">
<g clip-path="url(#clip0_273_2)">
<path d="M17.61 16.906V16.899C17.6102 16.7378 17.5672 16.5795 17.4856 16.4404C17.4041 16.3013 17.2868 16.1866 17.146 16.108L17.141 16.106C15.0199 14.8695 12.5965 14.2473 10.142 14.309H10.157C8.59904 14.3229 7.04746 14.5104 5.53102 14.868L5.67302 14.84C5.47908 14.8641 5.30214 14.9628 5.17969 15.1151C5.05724 15.2674 4.9989 15.4614 5.01702 15.656V15.653V15.665C5.01702 15.87 5.09802 16.056 5.22902 16.193C5.36102 16.333 5.54702 16.42 5.75402 16.42L5.78502 16.419H5.78402C6.00902 16.385 6.20402 16.342 6.39502 16.286L6.36302 16.294C7.60718 16.0237 8.87588 15.8823 10.149 15.872H10.159C12.3574 15.8213 14.5258 16.3892 16.417 17.511L16.363 17.481C16.509 17.578 16.686 17.64 16.876 17.653H16.88C17.0747 17.653 17.2614 17.5757 17.399 17.438C17.5367 17.3004 17.614 17.1137 17.614 16.919V16.902V16.903L17.61 16.906ZM19.11 13.546V13.514C19.11 13.119 18.891 12.774 18.568 12.596L18.563 12.593C16.205 11.206 13.368 10.386 10.34 10.386C10.222 10.386 10.103 10.387 9.98602 10.39H10.004C8.36043 10.3892 6.72495 10.6205 5.14602 11.077L5.26902 11.046C5.0425 11.0919 4.84085 11.2196 4.70265 11.4049C4.56446 11.5901 4.49943 11.8198 4.52002 12.05V12.046V12.05C4.52002 12.566 4.93802 12.984 5.45402 12.984H5.45802C5.67602 12.956 5.87202 12.912 6.06102 12.853L6.03702 12.86C7.30584 12.5133 8.6157 12.3397 9.93102 12.344H9.95802H9.95702C12.6553 12.2782 15.319 12.9619 17.652 14.319L17.582 14.281C17.751 14.389 17.953 14.462 18.17 14.484H18.18C18.4277 14.484 18.6653 14.3856 18.8405 14.2105C19.0156 14.0353 19.114 13.7977 19.114 13.55V13.546H19.11ZM20.8 9.67202L20.801 9.62002C20.801 9.17102 20.55 8.78102 20.181 8.58102L20.175 8.57802C18.7796 7.78532 17.2717 7.20973 15.703 6.87102L15.597 6.85202C14.001 6.48002 12.168 6.26602 10.285 6.26602H10.235H10.238C8.2676 6.23683 6.30349 6.49591 4.40802 7.03502L4.55002 7.00002C4.31516 7.07065 4.10642 7.20911 3.95002 7.39802L3.94802 7.40002C3.77855 7.61628 3.69328 7.88667 3.70802 8.16102V8.15802V8.18702C3.70802 8.49202 3.83002 8.76902 4.02902 8.97102C4.22502 9.17402 4.50002 9.29902 4.80402 9.29902H4.83602H4.83402C5.06402 9.27902 5.27702 9.23502 5.47902 9.16802L5.45902 9.17402C7.02915 8.75919 8.64932 8.56466 10.273 8.59602H10.259H10.303C12.002 8.59602 13.655 8.79002 15.242 9.15602L15.095 9.12702C16.5096 9.41711 17.8692 9.92982 19.123 10.646L19.056 10.611C19.234 10.722 19.449 10.791 19.679 10.798H19.691C19.995 10.798 20.27 10.676 20.469 10.478C20.674 10.284 20.802 10.009 20.802 9.70502L20.801 9.67002V9.67202H20.8ZM24 12V12.09C24 14.277 23.402 16.324 22.36 18.077L22.39 18.023C21.35 19.8155 19.8652 21.3093 18.079 22.36L18.023 22.39C16.294 23.402 14.217 23.999 11.999 23.999C9.78102 23.999 7.70402 23.402 5.91802 22.359L5.97502 22.39C4.18258 21.35 2.68877 19.8652 1.63802 18.079L1.60802 18.023C0.596024 16.294 -0.000976562 14.217 -0.000976562 11.999C-0.000976562 9.78102 0.596024 7.70402 1.63902 5.91802L1.60802 5.97502C2.64801 4.18258 4.13287 2.68877 5.91902 1.63802L5.97502 1.60802C7.70402 0.596024 9.78102 -0.000976562 11.999 -0.000976562C14.217 -0.000976562 16.294 0.596024 18.08 1.63902L18.023 1.60802C19.8155 2.64801 21.3093 4.13287 22.36 5.91902L22.39 5.97502C23.4502 7.77202 24.0064 9.82159 24 11.908V12.004V11.999V12Z" fill="black"/>
</g>
<defs>
<clipPath id="clip0_273_2">
<rect width="24" height="24" fill="white"/>
</clipPath>
</defs>
</svg>
