<svg width="30" height="30" viewBox="0 0 30 30" fill="none" xmlns="http://www.w3.org/2000/svg">
<path d="M19.5517 14.1946L14.2315 10.8767C14.0969 10.7966 13.9423 10.7507 13.783 10.7435C13.6236 10.7362 13.465 10.7678 13.3227 10.8352C13.1809 10.9068 13.0627 11.0131 12.9807 11.1428C12.8986 11.2725 12.8559 11.4207 12.8571 11.5714V18.2073C12.8559 18.358 12.8986 18.5062 12.9807 18.6359C13.0627 18.7656 13.1809 18.8719 13.3227 18.9435C13.4534 19.0048 13.5976 19.0367 13.7438 19.0368C13.9166 19.0351 14.0855 18.9884 14.2315 18.902L19.5517 15.584C19.6752 15.5087 19.7767 15.4057 19.8469 15.2844C19.9171 15.1631 19.9539 15.0273 19.9539 14.8893C19.9539 14.7514 19.9171 14.6156 19.8469 14.4943C19.7767 14.373 19.6752 14.27 19.5517 14.1946V14.1946ZM14.6305 16.6624V13.1163L17.468 14.8893L14.6305 16.6624ZM27.2993 8.85479C27.1974 8.47252 26.998 8.11906 26.718 7.8247C26.4381 7.53035 26.0861 7.30387 25.6921 7.16469C21.9015 5.79603 15.8498 5.8064 15.5172 5.8064C15.1847 5.8064 9.13301 5.79603 5.34237 7.16469C4.94839 7.30387 4.59636 7.53035 4.31645 7.8247C4.03654 8.11906 3.8371 8.47252 3.73523 8.85479C3.44705 9.88128 3.10345 11.7684 3.10345 14.8893C3.10345 18.0103 3.44705 19.8974 3.73523 20.9239C3.8371 21.3062 4.03654 21.6596 4.31645 21.954C4.59636 22.2483 4.94839 22.4748 5.34237 22.614C8.97784 23.9308 14.6749 23.9723 15.4397 23.9723H15.5948C16.3596 23.9723 22.0567 23.9308 25.6921 22.614C26.0861 22.4748 26.4381 22.2483 26.718 21.954C26.998 21.6596 27.1974 21.3062 27.2993 20.9239C27.5874 19.8974 27.931 18.0103 27.931 14.8893C27.931 11.7684 27.5874 9.88128 27.2993 8.85479V8.85479ZM25.5813 20.5092C25.5485 20.6346 25.4842 20.7509 25.3935 20.8483C25.3029 20.9457 25.1887 21.0214 25.0604 21.0691C21.5468 22.334 15.5838 22.3133 15.5172 22.3133H15.5062C15.4507 22.3133 9.48769 22.334 5.97414 21.0691C5.84584 21.0214 5.73159 20.9457 5.64096 20.8483C5.55032 20.7509 5.48595 20.6346 5.45321 20.5092C5.1872 19.5656 4.87685 17.834 4.87685 14.8893C4.87685 11.9446 5.1872 10.2131 5.45321 9.26953C5.48595 9.14408 5.55032 9.02778 5.64096 8.93037C5.73159 8.83296 5.84584 8.75727 5.97414 8.70962C9.35469 7.49649 15.0296 7.46538 15.4951 7.46538H15.5172C15.5838 7.46538 21.5468 7.44465 25.0604 8.70962C25.1887 8.75727 25.3029 8.83296 25.3935 8.93037C25.4842 9.02778 25.5485 9.14408 25.5813 9.26953C25.8473 10.2131 26.1576 11.9446 26.1576 14.8893C26.1576 17.834 25.8473 19.5656 25.5813 20.5092Z" fill="black"/>
</svg>
