<svg width="52" height="58" viewBox="0 0 52 58" fill="none" xmlns="http://www.w3.org/2000/svg">
<style>
    path {
      fill: black;
    }
    @media (prefers-color-scheme: dark) {
      path {
        fill: white;
      }
    }
</style>
<g clip-path="url(#clip0_33_69)">
<path d="M6.16 6.53868H20.56C25.3813 6.53868 29.5627 7.43469 33.104 9.22669C36.6453 11.0187 39.3547 13.5787 41.232 16.9067C43.152 20.2347 44.112 24.16 44.112 28.6827C44.112 36.1067 41.9573 41.7387 37.648 45.5787C33.3813 49.376 27.3867 51.2747 19.664 51.2747H6.16V6.53868ZM19.6 45.8347C25.5733 45.8347 30.0533 44.3627 33.04 41.4187C36.0267 38.4747 37.52 34.2294 37.52 28.6827C37.52 23.5627 36.048 19.5094 33.104 16.5227C30.2027 13.536 26.0427 12.0427 20.624 12.0427H12.688V45.8347H19.6Z"/>
<path d="M42.75 31.05C42.75 33.05 42.5667 35.0333 42.2 37C41.8667 38.9333 41.4 40.5167 40.8 41.75H36.2C37.7 38.55 38.45 35.1 38.45 31.4C38.45 26.2 36.7 23.6 33.2 23.6C32 23.6 31.0333 23.8833 30.3 24.45C29.5667 25.0167 28.9333 25.8333 28.4 26.9C27.8333 27.9667 27.0667 29.7 26.1 32.1C24.7667 35.4 23.3 37.7833 21.7 39.25C20.1 40.7167 18.0833 41.45 15.65 41.45C13.8167 41.45 12.2 40.95 10.8 39.95C9.36667 38.95 8.26666 37.55 7.5 35.75C6.7 33.95 6.3 31.8833 6.3 29.55C6.3 27.65 6.45 25.9333 6.75 24.4C7.05 22.8667 7.53333 21.3667 8.2 19.9H12.6C11.3 22.8 10.65 25.7333 10.65 28.7C10.65 31.1 11.0833 32.9333 11.95 34.2C12.8167 35.4667 14.05 36.1 15.65 36.1C16.75 36.1 17.6833 35.8333 18.45 35.3C19.1833 34.7333 19.85 33.9167 20.45 32.85C21.0167 31.75 21.7333 30.1333 22.6 28C23.5667 25.6333 24.4833 23.7667 25.35 22.4C26.2167 21.0333 27.2833 20 28.55 19.3C29.7833 18.5667 31.3333 18.2 33.2 18.2C36.2333 18.2 38.5833 19.2833 40.25 21.45C41.9167 23.6167 42.75 26.8167 42.75 31.05Z" />
<path d="M43.6356 50.0567C43.0735 50.3628 42.4963 50.4402 41.9039 50.2891C41.3243 50.0945 40.8815 49.7162 40.5755 49.1542C40.2694 48.5921 40.192 48.0148 40.3431 47.4224C40.5223 46.8148 40.893 46.3579 41.4551 46.0519C42.0172 45.7458 42.6021 45.6824 43.2097 45.8616C43.8174 46.0409 44.2743 46.4115 44.5803 46.9736C44.8864 47.5357 44.9498 48.1206 44.7705 48.7283C44.576 49.3079 44.1977 49.7507 43.6356 50.0567Z"/>
</g>
<defs>
<clipPath id="clip0_33_69">
<rect width="52" height="58"/>
</clipPath>
</defs>
</svg>
